<?xml version="1.0" standalone="no"?>
<!DOCTYPE svg PUBLIC "-//W3C//DTD SVG 20010904//EN"
 "http://www.w3.org/TR/2001/REC-SVG-20010904/DTD/svg10.dtd">
<svg version="1.0" xmlns="http://www.w3.org/2000/svg"
 width="200.000000pt" height="200.000000pt" viewBox="0 0 200.000000 200.000000"
 preserveAspectRatio="xMidYMid meet">
<metadata>
Created by potrace 1.11, written by Peter Selinger 2001-2013
</metadata>
<g transform="translate(0.000000,200.000000) scale(0.100000,-0.100000)"
fill="#000000" stroke="none">
<path d="M375 1463 c-37 -10 -64 -35 -70 -65 -8 -35 -18 -28 -35 25 l-12 39
-105 -4 c-101 -3 -106 -4 -129 -31 -22 -26 -24 -37 -24 -133 0 -89 4 -114 27
-173 27 -69 45 -89 92 -98 40 -7 156 -7 169 0 15 10 10 73 -13 135 l-19 52
-52 0 c-53 0 -55 2 -45 52 0 3 33 8 71 10 l70 3 0 -47 c0 -59 44 -174 75 -194
31 -20 127 -28 185 -14 73 17 82 38 81 172 -1 93 -6 119 -28 174 -15 38 -36
72 -50 81 -25 16 -149 27 -188 16z m115 -217 c0 -25 -22 -51 -33 -39 -11 10
-8 48 5 61 15 15 28 6 28 -22z"/>
<path d="M1043 1462 c-32 -3 -33 -5 -33 -46 0 -44 36 -146 51 -146 5 0 9 -13
9 -30 0 -27 -3 -30 -30 -30 -21 0 -30 -5 -30 -17 0 -9 -3 -13 -7 -9 -4 3 -6
28 -4 55 2 33 -6 69 -25 118 -37 96 -51 103 -198 103 l-116 0 -1 -37 c-6 -249
5 -355 42 -397 9 -10 183 -11 228 -1 42 9 63 38 67 91 4 50 14 74 14 33 0 -23
30 -112 41 -124 4 -3 48 -6 100 -6 150 -2 139 -5 139 45 0 44 -36 146 -51 146
-5 0 -9 14 -9 30 0 27 3 30 30 30 29 0 30 1 29 48 0 26 -8 67 -18 92 l-19 45
-88 5 c-49 3 -104 4 -121 2z m-198 -214 c-4 -37 -4 -38 -20 -38 -10 0 -15 10
-15 30 0 23 5 30 19 30 13 0 18 -6 16 -22z"/>
<path d="M1501 1450 c-5 -8 -7 -35 -6 -59 l3 -44 -50 56 c-46 53 -53 57 -94
57 -28 0 -44 -5 -45 -12 -7 -114 -3 -328 6 -348 40 -86 39 -85 79 -83 62 3 63
4 62 87 -1 42 0 76 2 76 9 0 32 -30 33 -42 0 -7 12 -38 27 -68 l27 -55 44 2
c25 1 47 7 51 12 3 6 6 84 5 173 -1 144 -3 168 -22 211 -14 30 -28 47 -40 48
-10 0 -31 2 -46 3 -17 1 -32 -4 -36 -14z"/>
<path d="M1710 1447 c-41 -21 -50 -52 -47 -172 2 -99 6 -116 32 -170 19 -37
40 -65 57 -73 33 -15 227 -19 237 -4 12 20 4 161 -13 205 -9 23 -14 57 -13 73
2 17 -6 58 -18 90 l-22 59 -94 3 c-61 1 -103 -2 -119 -11z m126 -235 c-8 -8
-17 3 -20 25 -2 10 2 21 8 25 11 8 23 -39 12 -50z"/>
<path d="M680 970 c-12 -7 -15 -39 -14 -177 1 -151 4 -173 23 -216 l22 -48 52
3 52 3 3 63 c4 80 20 80 52 -1 l25 -62 55 0 55 0 1 85 c0 63 -4 97 -19 131
-17 43 -18 49 -3 77 15 29 15 35 0 79 -22 66 -27 70 -82 69 -45 -2 -48 -3 -67
-44 -11 -23 -23 -42 -27 -42 -5 0 -7 3 -6 8 5 13 -24 72 -36 73 -6 0 -25 2
-41 4 -17 2 -37 -1 -45 -5z"/>
<path d="M1035 967 c-10 -5 -13 -20 -11 -50 5 -50 41 -137 56 -137 6 0 10 -12
8 -27 -2 -22 -9 -29 -33 -33 -27 -5 -30 -9 -31 -44 -1 -22 9 -62 22 -93 l24
-54 118 3 117 3 2 30 c2 38 -37 155 -52 155 -6 0 -11 14 -11 30 0 26 3 30 27
30 45 0 51 46 18 134 -12 31 -25 56 -28 57 -37 5 -215 3 -226 -4z"/>
<path d="M1340 970 c-5 -3 -10 -78 -10 -168 -2 -147 0 -169 20 -218 l22 -54
104 0 c114 0 165 14 184 49 6 13 10 65 9 129 -1 93 -5 117 -28 172 -15 35 -37
70 -49 78 -22 14 -231 25 -252 12z m175 -212 c-4 -37 -4 -38 -20 -38 -17 0
-18 50 -1 62 15 10 24 1 21 -24z"/>
<path d="M1761 969 c-18 -4 -42 -16 -54 -27 -26 -27 -29 -102 -5 -165 22 -57
22 -57 4 -57 -30 0 -28 -70 4 -144 l20 -48 111 4 c107 3 112 4 135 31 20 24
23 36 20 85 -2 31 -10 74 -19 94 -11 25 -12 40 -5 44 15 10 4 102 -18 149
l-19 40 -70 0 c-38 1 -85 -2 -104 -6z"/>
</g>
</svg>
